# xmcd
#
# Track frame offsets: 
#        150
#        20150
#        45600
#        63437
#        82742
#        103600
#        118720
#        134025
#        149925
#
# Disc length: 2285 seconds
#
# Revision: 3
# Processed by: cddbd v1.5.2PL0 Copyright (c) Steve Scherf et al.
# Submitted via: ExactAudioCopyFreeDBPlugin 1.0
#
DISCID=8608eb09
DTITLE=Bobby Womack - Womagic
DYEAR=1986
DGENRE=Soul
TTITLE0=(I Wanna) Make Love to You
TTITLE1=When the Weekend Comes
TTITLE2=The Things We Do (When We're Lonely)
TTITLE3=I Can't Stay Mad
TTITLE4=Can'tcha Hear the Children Calling
TTITLE5=Outside Myself
TTITLE6=I Ain't Got to Love Nobody Else
TTITLE7=More Than Love
TTITLE8=It Ain't Me
EXTD=
EXTT0=
EXTT1=
EXTT2=
EXTT3=
EXTT4=
EXTT5=
EXTT6=
EXTT7=
EXTT8=
PLAYORDER=
